<svg xmlns="http://www.w3.org/2000/svg" width="1694.626" height="774.764" viewBox="0 0 1694.626 774.764">
  <g id="Group_326" data-name="Group 326" transform="translate(-7259.884 19908.492)">
    <g id="Group_325" data-name="Group 325">
      <g id="Group_312" data-name="Group 312" transform="translate(-623 -245)">
        <path id="Path_2351" data-name="Path 2351" d="M4250.926,721.135c-167.657-.832-1107.049,1.2-1149.847.364-17.8-.346-48.2-.4-77.537-.349-41.389.076-80.775.368-80.711.378.109.017,0,168.021,0,168.021V716.3h3.183v-6.12l-4.421-4.59-19.979-6.733-41.433-31.6v-9.806h-6.8V646.662l-3.966-5.883-5.382-2.942-1.983-4.9v-9.315l2.55-5.393h-4.249l-5.1-10.786-2.266-6.864-1.7,7.845-6.232,10.3v7.354l-9.348,13.728-96.879.49-1.7-6.864,3.4-2.452s-.283.981-.566-4.412-5.665-7.354-5.665-7.354a7.776,7.776,0,0,0-4.816,6.374l-.566,4.9v5.884l-17.563,1.961v-6.374l-16.147-15.2H2556.3" transform="translate(5326.583 -20254.576)" fill="none" stroke="#fcb723" stroke-width="5"/>
        <path id="Path_2352" data-name="Path 2352" d="M3191.591,946.4s.171-147.014,0-147.032,1308.058-1.411,1308.058-1.411" transform="translate(5077.823 -19956.938)" fill="none" stroke="#fcb723" stroke-width="5"/>
        <path id="Path_2353" data-name="Path 2353" d="M3191.649,1191.5V937.482l-.018-43.475v-.148l-.041-94.491h1308" transform="translate(5077.823 -20080.227)" fill="none" stroke="#fcb723" stroke-width="5"/>
        <path id="Path_2354" data-name="Path 2354" d="M3191.591,953.072s.109-153.686,0-153.7H4498.719" transform="translate(5077.823 -20214.695)" fill="none" stroke="#fcb723" stroke-width="5"/>
      </g>
    </g>
  </g>
</svg>
