<svg xmlns="http://www.w3.org/2000/svg" width="1884.895" height="849.739" viewBox="0 0 1884.895 849.739">
  <g id="Group_332" data-name="Group 332" transform="translate(-12289.432 12620.492)">
    <path id="Path_2437" data-name="Path 2437" d="M2853.5,654.566l162.022,10.475,15.364-22.562V630.391l10.243-16.922,2.793-12.893,3.725,11.281,8.38,17.728h6.984l-4.19,8.864V653.76l3.259,8.058,8.846,4.835,6.518,9.669V694.05h11.174v16.117l68.1,51.934,32.838,11.066,7.265,7.545V790.77h-5.231v284.753s.178-276.126,0-276.154c-.1-.017,64.629-.5,132.655-.621,48.218-.088,98.176,0,127.438.573,70.341,1.368,1286.55-.573,1286.55-.573" transform="translate(9436.089 -13211.576)" fill="none" stroke="#fcb723" stroke-width="5"/>
    <path id="Path_2438" data-name="Path 2438" d="M3191.591,1077.734s.178-277.678,0-277.711,1545.142-4.64,1545.142-4.64" transform="translate(9435.992 -12848.488)" fill="none" stroke="#fcb723" stroke-width="5"/>
    <path id="Path_2439" data-name="Path 2439" d="M3191.591,1037.947s.178-238.55,0-238.578,1545.9-.922,1545.9-.922" transform="translate(9436.829 -13091.053)" fill="none" stroke="#fcb723" stroke-width="5"/>
    <path id="Path_2440" data-name="Path 2440" d="M3191.652,1104.034l-.061-304.665,1545.237-1.4" transform="translate(9435.993 -12970.827)" fill="none" stroke="#fcb723" stroke-width="5"/>
  </g>
</svg>
