<svg xmlns="http://www.w3.org/2000/svg" width="1997.621" height="1486.492" viewBox="0 0 1997.621 1486.492">
  <g id="Group_312" data-name="Group 312" transform="translate(-7882.884 19663.492)">
    <path id="Path_2351" data-name="Path 2351" d="M4553.911,804.792s-1031.886-4.1-1102.228-5.471c-29.262-.569-79.219-.661-127.438-.573-68.026.124-132.759.6-132.655.621.178.028,0,276.154,0,276.154V790.77h5.231V780.711l-7.265-7.545L3156.719,762.1l-68.1-51.934V694.05h-11.174V676.322l-6.518-9.669-8.846-4.835-3.259-8.058V638.449l4.19-8.864h-6.984l-8.38-17.728-3.725-11.281-2.793,12.893-10.243,16.922v12.087l-15.364,22.563-159.229.806-2.794-11.281,5.587-4.029s-.466,1.612-.931-7.252-9.312-12.087-9.312-12.087a12.781,12.781,0,0,0-7.915,10.475L2840,649.73v9.67l-28.866,3.222V652.148l-26.538-24.98H2556.3" transform="translate(5326.583 -20254.576)" fill="none" stroke="#fcb723" stroke-width="5"/>
    <path id="Path_2352" data-name="Path 2352" d="M3191.591,1037.947s.178-238.55,0-238.578,1359.955.2,1359.955.2" transform="translate(5325.026 -19633.367)" fill="none" stroke="#fcb723" stroke-width="5"/>
    <path id="Path_2353" data-name="Path 2353" d="M3191.652,1664.369V1104.034l-.061-304.665H4554.66" transform="translate(5325.026 -19841.369)" fill="none" stroke="#fcb723" stroke-width="5"/>
    <path id="Path_2354" data-name="Path 2354" d="M3191.591,1037.947s.178-238.55,0-238.578,1359.955.2,1359.955.2" transform="translate(5326.583 -20047.053)" fill="none" stroke="#fcb723" stroke-width="5"/>
  </g>
</svg>
