<svg xmlns="http://www.w3.org/2000/svg" width="1884.895" height="484.44" viewBox="0 0 1884.895 484.44">
  <path id="Path_2437" data-name="Path 2437" d="M2853.5,654.566l162.022,10.475,15.364-22.562V630.391l10.243-16.922,2.793-12.893,3.725,11.281,8.38,17.728h6.984l-4.19,8.864V653.76l3.259,8.058,8.846,4.835,6.518,9.669V694.05h11.174v16.117l68.1,51.934,32.838,11.066,7.265,7.545V790.77h-5.231v284.753s.178-276.126,0-276.154c-.1-.017,64.629-.5,132.655-.621,48.218-.088,98.176,0,127.438.573,70.341,1.368,1286.55-.573,1286.55-.573" transform="translate(-2853.343 -591.084)" fill="none" stroke="#fcb723" stroke-width="5"/>
</svg>
